<svg version="1.1" id="Layer_1" xmlns="http://www.w3.org/2000/svg" xmlns:xlink="http://www.w3.org/1999/xlink" x="0px" y="0px"
	 viewBox="0 0 526 512" style="enable-background:new 0 0 526 512;" xml:space="preserve">
<path d="M7,190.9v-5.8c0-69.9,50.5-129.5,119.4-141c44.7-7.6,92,7.3,124.6,39.9l12,12l11.1-12c33.5-32.6,79.9-47.5,125.5-39.9
	c68.9,11.5,119.4,71.1,119.4,141v5.8c0,41.5-17.2,81.2-47.6,109.5L290.7,469.1c-7.5,7-17.4,10.9-27.7,10.9
	c-10.3,0-20.2-3.9-27.7-10.9L54.6,300.4C24.2,272.1,7,232.4,7,190.9L7,190.9z"/>
</svg>
